<svg width="78" height="67" viewBox="0 0 78 67" fill="none" xmlns="http://www.w3.org/2000/svg">
<path d="M71.6698 5.54517C71.9841 5.49628 72.3049 5.57421 72.5618 5.76172C72.8186 5.94922 72.9906 6.23096 73.0398 6.54517C73.1398 7.20517 72.7098 7.82507 72.0598 7.94507L64.9398 9.16528L77.9198 34.7852C78.0198 34.9852 78.0598 35.2053 78.0498 35.4053C78.0198 43.6553 71.4998 50.3652 63.4898 50.3652C55.4598 50.3652 48.9198 43.6252 48.9198 35.3552C48.9198 35.1452 48.9698 34.9551 49.0598 34.7751L61.7598 9.71509L47.4598 12.175V12.3752C47.481 14.4302 46.7639 16.4244 45.4388 17.9954C44.1138 19.5663 42.269 20.6094 40.2398 20.9351V64.3652H54.6398C55.2998 64.3652 55.8298 64.9152 55.8298 65.5852C55.8325 65.7428 55.804 65.8993 55.7462 66.0459C55.6883 66.1925 55.6021 66.3264 55.4926 66.4397C55.383 66.553 55.2521 66.6436 55.1075 66.7063C54.9629 66.769 54.8074 66.8026 54.6498 66.8052H23.4798C23.3214 66.8039 23.1648 66.7711 23.019 66.709C22.8733 66.6468 22.7412 66.5565 22.6306 66.4431C22.52 66.3297 22.4329 66.1956 22.3744 66.0483C22.3159 65.9011 22.2872 65.7436 22.2898 65.5852C22.2898 64.9152 22.8198 64.3652 23.4798 64.3652H37.8798V20.9351C36.298 20.6864 34.8186 19.996 33.6121 18.9434C32.4055 17.8907 31.5208 16.5186 31.0598 14.9851L16.3298 17.5251L29.0698 42.6653C29.1554 42.8396 29.1999 43.0309 29.1998 43.2251C29.1998 51.5051 22.6698 58.2351 14.6398 58.2351C6.61983 58.2351 0.0998242 51.5352 0.0698242 43.2852C0.0698242 43.0852 0.0998291 42.8653 0.199829 42.6653L12.6198 18.1653L6.44983 19.2251L6.24982 19.2351C5.96879 19.2293 5.69872 19.125 5.48672 18.9404C5.27473 18.7558 5.13426 18.5027 5.08981 18.2251C4.97981 17.5551 5.40981 16.9252 6.05981 16.8252L30.6698 12.5852V12.3853C30.6483 10.3317 31.364 8.33854 32.687 6.76782C34.01 5.19711 35.8525 4.153 37.8798 3.8252V2.00513C37.8798 1.32513 38.4098 0.785156 39.0598 0.785156C39.7098 0.785156 40.2398 1.32513 40.2398 2.00513V3.8252C41.8216 4.0739 43.301 4.76423 44.5076 5.81689C45.7142 6.86956 46.5989 8.24169 47.0598 9.77515L71.6698 5.54517ZM33.1698 13.3953C33.1898 13.5153 33.1898 13.6351 33.1798 13.7451C33.4644 15.1136 34.2111 16.3425 35.2945 17.2256C36.3779 18.1087 37.7321 18.5924 39.1298 18.5952C40.7399 18.5507 42.2678 17.8742 43.3831 16.7122C44.4984 15.5501 45.1115 13.9958 45.0898 12.3853C45.0898 8.95525 42.3898 6.17505 39.0598 6.17505C38.1986 6.18683 37.3495 6.38004 36.568 6.74194C35.7864 7.10385 35.0898 7.62651 34.5237 8.27563C33.9576 8.92476 33.5347 9.68574 33.2825 10.5093C33.0302 11.3328 32.9544 12.2004 33.0598 13.0552C33.1198 13.1552 33.1598 13.2753 33.1698 13.3953ZM51.3398 36.5752C51.9398 42.9352 57.1598 47.925 63.4898 47.925C69.8198 47.925 75.0298 42.9352 75.6298 36.5752H51.3398ZM63.4898 11.5752L52.0498 34.1353H74.9198L63.4898 11.5752ZM2.48981 44.4451C3.08981 50.8151 8.30983 55.8052 14.6398 55.8052C20.9698 55.8052 26.1898 50.8051 26.7798 44.4451H2.48981ZM14.6398 19.4451L3.19983 42.0151H26.0698L14.6398 19.4451Z" fill="white"/>
</svg>
