<svg width="80" height="80" viewBox="0 0 80 80" fill="none" xmlns="http://www.w3.org/2000/svg">
<mask id="path-1-inside-1_31_11" fill="white">
<path d="M0 40C0 17.9086 17.9086 0 40 0C62.0914 0 80 17.9086 80 40C80 62.0914 62.0914 80 40 80C17.9086 80 0 62.0914 0 40Z"/>
</mask>
<path d="M40 79C18.4609 79 1 61.5391 1 40H-1C-1 62.6437 17.3563 81 40 81V79ZM79 40C79 61.5391 61.5391 79 40 79V81C62.6437 81 81 62.6437 81 40H79ZM40 1C61.5391 1 79 18.4609 79 40H81C81 17.3563 62.6437 -1 40 -1V1ZM40 -1C17.3563 -1 -1 17.3563 -1 40H1C1 18.4609 18.4609 1 40 1V-1Z" fill="#C0B596" fill-opacity="0.5" mask="url(#path-1-inside-1_31_11)"/>
<path d="M27.75 35.845C27.75 35.845 23.2499 37.595 22.5 43.72M52.25 35.845C52.25 35.845 56.7501 37.595 57.5 43.72M34.75 35.845C34.75 35.845 38.95 36.8661 40 41.97C41.05 36.8661 45.25 35.845 45.25 35.845M36.5 48.97C36.5 48.97 32.825 49.6262 31.25 54.22M43.5 48.97C43.5 48.97 47.175 49.6262 48.75 54.22" stroke="#ADA282" stroke-width="2" stroke-linecap="round"/>
<path d="M40 50.72C42.4162 50.72 44.375 48.7612 44.375 46.345C44.375 43.9287 42.4162 41.97 40 41.97C37.5838 41.97 35.625 43.9287 35.625 46.345C35.625 48.7612 37.5838 50.72 40 50.72Z" fill="#ADA282" stroke="#ADA282" stroke-width="2" stroke-linecap="round" stroke-linejoin="round"/>
<path d="M48.75 36.72C51.6495 36.72 54 34.3695 54 31.47C54 28.5705 51.6495 26.22 48.75 26.22C45.8505 26.22 43.5 28.5705 43.5 31.47C43.5 34.3695 45.8505 36.72 48.75 36.72Z" fill="#ADA282" stroke="#ADA282" stroke-width="2" stroke-linecap="round" stroke-linejoin="round"/>
<path d="M31.25 36.72C34.1495 36.72 36.5 34.3695 36.5 31.47C36.5 28.5705 34.1495 26.22 31.25 26.22C28.3505 26.22 26 28.5705 26 31.47C26 34.3695 28.3505 36.72 31.25 36.72Z" fill="#ADA282" stroke="#ADA282" stroke-width="2" stroke-linecap="round" stroke-linejoin="round"/>
</svg>
