<svg width="80" height="81" viewBox="0 0 80 81" fill="none" xmlns="http://www.w3.org/2000/svg">
<mask id="path-1-inside-1_15_2287" fill="white">
<path d="M0 40.3801C0 18.2887 17.9086 0.380127 40 0.380127C62.0914 0.380127 80 18.2887 80 40.3801C80 62.4715 62.0914 80.3801 40 80.3801C17.9086 80.3801 0 62.4715 0 40.3801Z"/>
</mask>
<path d="M40 79.3801C18.4609 79.3801 1 61.9192 1 40.3801H-1C-1 63.0238 17.3563 81.3801 40 81.3801V79.3801ZM79 40.3801C79 61.9192 61.5391 79.3801 40 79.3801V81.3801C62.6437 81.3801 81 63.0238 81 40.3801H79ZM40 1.38013C61.5391 1.38013 79 18.841 79 40.3801H81C81 17.7365 62.6437 -0.619873 40 -0.619873V1.38013ZM40 -0.619873C17.3563 -0.619873 -1 17.7365 -1 40.3801H1C1 18.841 18.4609 1.38013 40 1.38013V-0.619873Z" fill="#C0B596" fill-opacity="0.5" mask="url(#path-1-inside-1_15_2287)"/>
<g clip-path="url(#clip0_15_2287)">
<path d="M62.1469 46.1654C63.8877 48.7444 64.7581 51.3879 64.7581 54.0958C64.7581 55.7721 64.3391 57.3195 63.5009 58.738C62.6627 60.1564 61.5344 61.2847 60.116 62.1229C58.6975 62.961 57.1501 63.3801 55.4738 63.3801H38.9361H15.2417V56.6103C15.2417 55.3853 15.5963 54.2731 16.3055 53.2737C17.0147 52.2744 17.9496 51.5813 19.1102 51.1944H19.3036C20.0773 51.001 20.7382 50.7915 21.2862 50.5658C21.8342 50.3402 22.35 50.1145 22.8336 49.8888C23.3171 49.6632 23.6556 49.4859 23.849 49.3569C26.9438 48.1964 28.7491 47.1648 29.2649 46.2621V46.1654V42.5871C27.4596 40.1371 26.2991 37.5581 25.7833 34.8501C24.1714 36.0752 23.2365 36.6877 22.9786 36.6877C22.8497 36.6877 22.7852 36.6554 22.7852 36.591C22.4628 33.883 22.4306 31.5136 22.6885 29.4826C22.9464 27.4517 23.4138 25.6948 24.0908 24.2118C24.7678 22.7289 25.4609 21.52 26.1701 20.5852C26.8794 19.6503 27.4919 18.9572 28.0077 18.5059L28.8781 17.8289L26.6537 16.2815C30.0708 14.6696 33.7137 13.8637 37.5821 13.8637C41.2572 13.8637 44.352 14.8308 46.8665 16.765C49.0586 18.5703 50.4448 20.3111 51.0251 21.9875C51.6053 23.6638 51.9922 26.6296 52.1856 30.885C52.1856 31.3363 52.1856 31.7876 52.1856 32.2389C52.1856 32.3034 52.1856 32.3356 52.1856 32.3356C52.1856 34.0765 51.8632 35.8173 51.2185 37.5581C51.283 37.5581 51.3152 37.5581 51.3152 37.5581H59.6324C60.0837 37.5581 60.39 37.7837 60.5512 38.2351C60.7124 38.6864 60.6318 39.0732 60.3094 39.3956L57.6015 42.1035C59.2778 42.7483 60.793 44.1022 62.1469 46.1654ZM57.1179 39.6857H53.8297L55.4738 41.3298L57.1179 39.6857ZM50.6382 39.3956C50.5737 39.3311 50.5415 39.2667 50.5415 39.2022C49.9612 40.3627 49.2843 41.491 48.5106 42.5871V46.1654C48.5106 46.1654 48.5106 46.1977 48.5106 46.2621C48.575 46.2621 48.6073 46.2944 48.6073 46.3589C48.6717 46.3589 48.7201 46.3266 48.7523 46.2621C48.7846 46.1977 48.8007 46.1654 48.8007 46.1654C50.1547 44.1022 51.6698 42.7483 53.3461 42.1035L50.6382 39.3956ZM50.1547 32.3356C50.1547 31.6909 50.1224 31.0462 50.0579 30.4014H47.1566C47.8658 30.9817 48.2204 31.6587 48.2204 32.4324C48.2204 33.206 47.8658 33.883 47.1566 34.4633H49.9612C50.0902 33.7541 50.1547 33.0449 50.1547 32.3356ZM36.0347 28.2737H48.3171L46.0928 26.1461C45.7704 26.0816 45.448 26.0494 45.1256 26.0494C42.2888 26.0494 39.2585 26.7908 36.0347 28.2737ZM45.5125 33.1577C45.5125 33.1577 45.6092 33.1013 45.8026 32.9884C45.9961 32.8756 46.0928 32.6902 46.0928 32.4324C46.0928 32.1745 45.8993 31.9327 45.5125 31.707C45.1256 31.4814 44.6421 31.3685 44.0618 31.3685C43.675 31.3685 43.3204 31.433 42.998 31.5619C42.6756 31.6909 42.4338 31.836 42.2726 31.9971C42.1115 32.1583 42.0309 32.3034 42.0309 32.4324C42.0309 32.6902 42.2243 32.932 42.6111 33.1577C42.998 33.3834 43.4815 33.4962 44.0618 33.4962C44.6421 33.4962 45.1256 33.3834 45.5125 33.1577ZM40.967 34.4633C40.2578 33.883 39.9032 33.206 39.9032 32.4324C39.9032 31.6587 40.2578 30.9817 40.967 30.4014H36.8084C37.5177 30.9817 37.8723 31.6587 37.8723 32.4324C37.8723 33.206 37.5177 33.883 36.8084 34.4633H40.967ZM24.526 33.206C27.8142 30.6915 30.6189 28.7895 32.94 27.5C34.9387 26.4685 36.8729 25.6625 38.7427 25.0823C40.9348 24.373 43.0625 24.0184 45.1256 24.0184C45.5125 24.0184 45.8671 24.0184 46.1895 24.0184L46.9632 24.1151L47.5434 24.5987L49.8645 26.9198C49.7356 25.3724 49.5099 24.1151 49.1875 23.148C48.9296 22.3098 48.5428 21.5362 48.027 20.8269C47.4467 20.1177 46.6086 19.3118 45.5125 18.4091C43.4493 16.7328 40.8059 15.8946 37.5821 15.8946C35.5189 15.8946 33.359 16.217 31.1024 16.8618L32.5531 17.9256L30.0386 19.5697C28.8136 20.4079 27.7175 21.6973 26.7504 23.4382C25.8478 24.9855 25.2353 26.6941 24.9129 28.5639C24.5905 30.0468 24.4616 31.5942 24.526 33.206ZM35.8413 32.4324C35.8413 32.1745 35.6318 31.9327 35.2127 31.707C34.7936 31.4814 34.2939 31.3685 33.7137 31.3685C33.1334 31.3685 32.6498 31.4814 32.263 31.707C31.8761 31.9327 31.6827 32.1745 31.6827 32.4324C31.6827 32.4968 31.7149 32.5774 31.7794 32.6741C31.8439 32.7708 31.9406 32.8676 32.0696 32.9643C32.1985 33.061 32.3436 33.1416 32.5048 33.206C32.6659 33.2705 32.8432 33.335 33.0367 33.3995C33.2301 33.4639 33.4558 33.4962 33.7137 33.4962C34.1005 33.4962 34.4551 33.4317 34.7775 33.3028C35.0999 33.1738 35.3578 33.0287 35.5512 32.8676C35.7446 32.7064 35.8413 32.5613 35.8413 32.4324ZM27.7175 33.3995C27.7175 33.7218 27.7498 34.0765 27.8142 34.4633H30.6189C29.9741 33.883 29.6518 33.206 29.6518 32.4324C29.6518 32.3034 29.6518 32.1422 29.6518 31.9488C29.007 32.4001 28.3623 32.8837 27.7175 33.3995ZM28.3945 36.591C29.1037 38.7186 30.2643 40.6851 31.8761 42.4904C33.1011 43.9088 34.3906 45.0049 35.7446 45.7786C36.9696 46.4878 38.0173 46.8424 38.8877 46.8424C39.7581 46.8424 40.8059 46.4878 42.0309 45.7786C43.3848 45.0049 44.6743 43.9088 45.8993 42.4904C47.5112 40.6851 48.6717 38.7186 49.381 36.591H28.3945ZM47.5434 48.2931C47.1566 47.9062 46.8665 47.5194 46.673 47.1325C46.673 47.1325 46.673 47.1003 46.673 47.0358H46.5763L46.4796 46.649V46.1654V44.9082C43.7717 47.6161 41.2411 48.9701 38.8877 48.9701C36.5344 48.9701 34.0038 47.6161 31.2959 44.9082V46.1654V46.649L31.1991 47.0358C31.1347 47.1003 31.1024 47.1325 31.1024 47.1325C30.8445 47.6483 30.4255 48.1641 29.8452 48.6799C30.2965 49.0668 30.8123 49.4536 31.3926 49.8405C33.6492 51.2589 36.1637 51.9681 38.9361 51.9681C41.9019 51.9681 44.6098 51.13 47.0599 49.4536C47.2533 49.0668 47.4145 48.6799 47.5434 48.2931ZM19.7872 53.2254C18.3042 53.6767 17.4983 54.6438 17.3694 56.1267H46.3829C46.254 55.482 46.1895 54.805 46.1895 54.0958C46.1895 53.58 46.254 52.9997 46.3829 52.355C43.9973 53.5155 41.5151 54.0958 38.9361 54.0958C34.5518 54.0958 30.909 52.6774 28.0077 49.8405C27.105 50.2918 25.9767 50.7754 24.6227 51.2912C24.4293 51.3556 24.1392 51.4846 23.7523 51.678C22.4628 52.3227 21.1734 52.8063 19.8839 53.1287L19.7872 53.2254ZM38.9361 61.3492H49.6711C48.575 60.4465 47.7369 59.4149 47.1566 58.2544H17.2726V61.3492H38.9361ZM50.3481 59.2215C50.3481 59.2215 50.7027 59.5761 51.4119 60.2853C52.1211 60.9946 53.4751 61.3492 55.4738 61.3492C57.4725 61.3492 59.1811 60.64 60.5995 59.2215C62.018 57.8031 62.7272 56.0945 62.7272 54.0958C62.7272 51.8392 61.9535 49.5826 60.4061 47.326C58.9232 44.9404 57.2791 43.7476 55.4738 43.7476C53.6685 43.7476 52.0244 44.9404 50.5415 47.326C48.9941 49.5826 48.2204 51.8392 48.2204 54.0958C48.2204 56.0945 48.9296 57.8031 50.3481 59.2215ZM56.5376 52.6451L59.3423 55.4498C59.6647 55.7721 59.7291 56.1429 59.5357 56.5619C59.3423 56.981 59.0199 57.1906 58.5686 57.1906H56.5376V58.2544C56.5376 58.5123 56.4248 58.738 56.1991 58.9314C55.9735 59.1248 55.7317 59.2215 55.4738 59.2215C55.2159 59.2215 54.9741 59.1248 54.7485 58.9314C54.5228 58.738 54.41 58.5123 54.41 58.2544V57.1906H52.379C52.1211 57.1906 51.8794 57.0939 51.6537 56.9004C51.428 56.707 51.3152 56.4652 51.3152 56.1751C51.3152 55.885 51.428 55.6432 51.6537 55.4498C51.8794 55.2563 52.1211 55.1596 52.379 55.1596H54.41V53.5155L51.6053 50.7109C51.283 50.3885 51.2185 50.0178 51.4119 49.5987C51.6053 49.1796 51.9277 48.9701 52.379 48.9701H54.41V47.9062C54.41 47.6483 54.5228 47.4066 54.7485 47.1809C54.9741 46.9552 55.2159 46.8424 55.4738 46.8424C55.7317 46.8424 55.9735 46.9552 56.1991 47.1809C56.4248 47.4066 56.5376 47.6483 56.5376 47.9062V48.9701H58.5686C58.8265 48.9701 59.0683 49.0668 59.2939 49.2602C59.5196 49.4536 59.6324 49.6954 59.6324 49.9855C59.6324 50.2757 59.5196 50.5175 59.2939 50.7109C59.0683 50.9043 58.8265 51.001 58.5686 51.001H56.5376V52.6451Z" fill="#C0B596"/>
</g>
<defs>
<clipPath id="clip0_15_2287">
<rect width="50" height="50" fill="white" transform="matrix(1 0 0 -1 15 63.3801)"/>
</clipPath>
</defs>
</svg>
