<svg width="80" height="81" viewBox="0 0 80 81" fill="none" xmlns="http://www.w3.org/2000/svg">
<mask id="path-1-inside-1_15_2272" fill="white">
<path d="M0 40.5901C0 18.4987 17.9086 0.590088 40 0.590088C62.0914 0.590088 80 18.4987 80 40.5901C80 62.6815 62.0914 80.5901 40 80.5901C17.9086 80.5901 0 62.6815 0 40.5901Z"/>
</mask>
<path d="M40 79.5901C18.4609 79.5901 1 62.1292 1 40.5901H-1C-1 63.2338 17.3563 81.5901 40 81.5901V79.5901ZM79 40.5901C79 62.1292 61.5391 79.5901 40 79.5901V81.5901C62.6437 81.5901 81 63.2338 81 40.5901H79ZM40 1.59009C61.5391 1.59009 79 19.051 79 40.5901H81C81 17.9464 62.6437 -0.409912 40 -0.409912V1.59009ZM40 -0.409912C17.3563 -0.409912 -1 17.9464 -1 40.5901H1C1 19.051 18.4609 1.59009 40 1.59009V-0.409912Z" fill="#C0B596" fill-opacity="0.5" mask="url(#path-1-inside-1_15_2272)"/>
<g clip-path="url(#clip0_15_2272)">
<path d="M55.2807 54.886C55.2807 54.4347 55.5224 54.209 56.006 54.209C56.4895 54.209 56.7313 54.4347 56.7313 54.886V61.7526C56.7313 62.2684 56.5379 62.7036 56.1511 63.0582C55.7642 63.4128 55.3129 63.5901 54.7971 63.5901H35.4547C35.0034 63.5901 34.7777 63.3483 34.7777 62.8647C34.7777 62.3812 35.0034 62.1394 35.4547 62.1394H38.3561L36.1317 59.6249C35.8093 59.367 35.6804 59.0124 35.7449 58.5611L37.9692 45.7951L37.389 44.9247C36.9376 45.1826 36.583 45.3116 36.3251 45.3116C35.8093 45.3116 35.4225 45.0859 35.1646 44.6346L32.9402 40.0891L27.7178 42.0234C27.4599 42.1523 27.1536 42.3296 26.799 42.5553C26.4444 42.7809 26.0092 43.2806 25.4934 44.0543C24.9776 44.828 24.7197 45.6984 24.7197 46.6655V61.7526C24.7197 62.0105 24.8809 62.1394 25.2033 62.1394H29.0718V47.8261C29.0718 47.3747 29.3135 47.1491 29.7971 47.1491C30.2806 47.1491 30.5224 47.3747 30.5224 47.8261V62.1394H32.0698C32.5856 62.1394 32.8435 62.3812 32.8435 62.8647C32.8435 63.3483 32.5856 63.5901 32.0698 63.5901H25.2033C24.6875 63.5901 24.2362 63.4128 23.8493 63.0582C23.4625 62.7036 23.269 62.2684 23.269 61.7526V46.6655C23.269 45.376 23.6237 44.2316 24.3329 43.2323C25.0421 42.2329 25.6062 41.6043 26.0253 41.3464C26.4444 41.0885 26.8151 40.8628 27.1375 40.6694L35.8416 37.3812V35.447C34.2942 34.2864 33.3915 32.739 33.1336 30.8048C32.4244 30.8048 31.8119 30.5791 31.2961 30.1278C30.5869 29.4831 30.2323 28.7094 30.2323 27.8067C30.2323 27.033 30.458 26.356 30.9093 25.7758V23.0678C30.9093 21.8428 31.1511 20.6823 31.6346 19.5862C32.1182 18.4902 32.7629 17.5392 33.5689 16.7332C34.3748 15.9273 35.3258 15.2825 36.4218 14.799C37.5179 14.3154 38.6785 14.0736 39.9035 14.0736C41.1285 14.0736 42.289 14.3154 43.3851 14.799C44.4812 15.2825 45.4322 15.9273 46.2381 16.7332C47.044 17.5392 47.6888 18.4902 48.1723 19.5862C48.6559 20.6823 48.8977 21.8428 48.8977 23.0678V25.7758C49.4135 26.356 49.6714 27.033 49.6714 27.8067C49.6714 28.7094 49.3168 29.4831 48.6075 30.1278C48.0917 30.5791 47.4792 30.8048 46.77 30.8048C46.5121 32.6745 45.6417 34.1897 44.1588 35.3502V37.3812L52.8629 40.6694C52.9918 40.7339 53.153 40.8145 53.3464 40.9112C53.5398 41.0079 53.8461 41.2335 54.2652 41.5882C54.6843 41.9428 55.055 42.3135 55.3774 42.7003C55.6997 43.0872 56.006 43.6352 56.2961 44.3444C56.5863 45.0537 56.7313 45.8274 56.7313 46.6655V51.5011C56.7313 52.0169 56.4895 52.2748 56.006 52.2748C55.5224 52.2748 55.2807 52.0169 55.2807 51.5011V46.6655C55.2807 45.6984 55.0228 44.828 54.507 44.0543C53.9912 43.2806 53.556 42.7809 53.2013 42.5553C52.8467 42.3296 52.5405 42.1523 52.2826 42.0234L47.0601 40.0891L44.8358 44.6346C44.5779 45.0859 44.191 45.3116 43.6752 45.3116C43.4173 45.3116 43.0627 45.1826 42.6114 44.9247L42.0311 45.7951L44.2555 58.5611C44.32 59.0124 44.191 59.367 43.8687 59.6249L41.6443 62.1394H49.4779V47.8261C49.4779 47.3747 49.7197 47.1491 50.2033 47.1491C50.6868 47.1491 50.9286 47.3747 50.9286 47.8261V62.1394H54.7971C55.1195 62.1394 55.2807 62.0105 55.2807 61.7526V54.886ZM45.7062 39.5089L43.6752 38.7352C42.5792 40.0246 41.8861 40.8628 41.5959 41.2497C41.3058 41.6365 41.1285 41.8622 41.064 41.9266C41.4509 42.249 41.8538 42.5553 42.2729 42.8454C42.692 43.1355 43.0144 43.3612 43.24 43.5224C43.4657 43.6836 43.5785 43.7642 43.5785 43.7642L45.7062 39.5089ZM41.4509 44.0543L40.0002 42.9905L38.5495 44.0543L39.1298 44.828H40.8706L41.4509 44.0543ZM37.2923 37.5746L40.0002 40.9595L42.7081 37.5746V36.2206C41.8699 36.543 40.9673 36.7042 40.0002 36.7042C39.0331 36.7042 38.1304 36.543 37.2923 36.2206V37.5746ZM48.2207 27.8067C48.2207 26.8396 47.7371 26.2916 46.77 26.1626V29.3541C47.0924 29.2896 47.3825 29.1607 47.6404 28.9673C48.0273 28.6449 48.2207 28.258 48.2207 27.8067ZM33.0369 29.3541V26.1626C32.1343 26.4205 31.683 26.9686 31.683 27.8067C31.683 28.7094 32.1343 29.2252 33.0369 29.3541ZM33.0369 24.7119C33.2304 24.0027 33.6817 23.6804 34.3909 23.7448C37.4212 23.9383 40.2581 23.1646 42.9015 21.4237C43.4818 21.0369 44.0298 21.1014 44.5456 21.6172C44.7391 21.8751 45.0292 22.1974 45.416 22.5843C46.1253 23.358 46.5282 23.8254 46.6249 23.9866C46.7217 24.1478 46.77 24.3896 46.77 24.7119C47.0279 24.7119 47.2536 24.7442 47.447 24.8087V23.0678C47.447 21.7139 47.1085 20.4566 46.4315 19.2961C45.7545 18.1355 44.8358 17.2168 43.6752 16.5398C42.5147 15.8628 41.2574 15.5243 39.9035 15.5243C39.1298 15.5243 38.3561 15.6533 37.5824 15.9112C36.8087 16.1691 36.1156 16.5237 35.5031 16.975C34.8906 17.4263 34.3425 17.9582 33.859 18.5707C33.3754 19.1833 33.0047 19.8764 32.7468 20.65C32.4889 21.4237 32.36 22.2297 32.36 23.0678V24.9054C32.6179 24.7764 32.8435 24.7119 33.0369 24.7119ZM34.4876 29.9344C34.4876 31.4173 35.0034 32.6745 36.035 33.7061C37.0666 34.7377 38.3883 35.2535 40.0002 35.2535C41.4831 35.2535 42.7404 34.7377 43.7719 33.7061C44.8035 32.6745 45.3193 31.4173 45.3193 29.9344V24.7119C45.3193 24.6475 44.7391 24.0027 43.5785 22.7777C40.7416 24.583 37.7113 25.3889 34.4876 25.1955V25.3889V29.9344ZM36.4218 43.7642C36.4218 43.7642 36.5024 43.7158 36.6636 43.6191C36.8248 43.5224 37.0021 43.3934 37.1955 43.2323C37.389 43.0711 37.6469 42.8776 37.9692 42.652C38.2916 42.4263 38.614 42.1845 38.9364 41.9266L36.3251 38.7352L34.2942 39.5089L36.4218 43.7642ZM37.1955 58.7545L40.0002 61.7526L42.8048 58.7545L40.6772 46.2787H39.3232L37.1955 58.7545Z" fill="#C0B596"/>
</g>
<defs>
<clipPath id="clip0_15_2272">
<rect width="50" height="50" fill="white" transform="matrix(1 0 0 -1 15 63.5901)"/>
</clipPath>
</defs>
</svg>
