<svg width="80" height="81" viewBox="0 0 80 81" fill="none" xmlns="http://www.w3.org/2000/svg">
<mask id="path-1-inside-1_15_2242" fill="white">
<path d="M0 40.5901C0 18.4987 17.9086 0.590088 40 0.590088C62.0914 0.590088 80 18.4987 80 40.5901C80 62.6815 62.0914 80.5901 40 80.5901C17.9086 80.5901 0 62.6815 0 40.5901Z"/>
</mask>
<path d="M40 79.5901C18.4609 79.5901 1 62.1292 1 40.5901H-1C-1 63.2338 17.3563 81.5901 40 81.5901V79.5901ZM79 40.5901C79 62.1292 61.5391 79.5901 40 79.5901V81.5901C62.6437 81.5901 81 63.2338 81 40.5901H79ZM40 1.59009C61.5391 1.59009 79 19.051 79 40.5901H81C81 17.9464 62.6437 -0.409912 40 -0.409912V1.59009ZM40 -0.409912C17.3563 -0.409912 -1 17.9464 -1 40.5901H1C1 19.051 18.4609 1.59009 40 1.59009V-0.409912Z" fill="#C0B596" fill-opacity="0.5" mask="url(#path-1-inside-1_15_2242)"/>
<path d="M30.0386 31.9653C30.2965 31.5784 30.6189 31.5301 31.0057 31.8202C31.3926 32.1103 31.4248 32.4488 31.1024 32.8357C30.5222 33.6094 29.7807 33.9962 28.8781 33.9962C27.9754 33.9962 27.2017 33.6094 26.557 32.8357C26.2346 32.4488 26.2668 32.1103 26.6537 31.8202C27.0405 31.5301 27.3951 31.5784 27.7175 31.9653C28.0399 32.3521 28.4267 32.5455 28.8781 32.5455C29.3294 32.5455 29.7162 32.3521 30.0386 31.9653ZM24.7195 28.0968C24.7195 27.6455 24.9612 27.4198 25.4448 27.4198C25.9284 27.4198 26.1701 27.6455 26.1701 28.0968V28.9672C26.1701 29.4185 25.9284 29.6442 25.4448 29.6442C24.9612 29.6442 24.7195 29.4185 24.7195 28.9672V28.0968ZM31.586 28.0968C31.586 27.6455 31.8278 27.4198 32.3113 27.4198C32.7949 27.4198 33.0367 27.6455 33.0367 28.0968V28.9672C33.0367 29.4185 32.7949 29.6442 32.3113 29.6442C31.8278 29.6442 31.586 29.4185 31.586 28.9672V28.0968ZM21.7214 47.5359C21.7859 47.6003 21.8181 47.697 21.8181 47.826V61.5591C21.8181 62.0749 21.5763 62.3328 21.0928 62.3328C20.6092 62.3328 20.3674 62.0749 20.3674 61.5591V48.0194L18.7233 44.7312C18.5299 44.2799 18.6427 43.9575 19.0618 43.7641C19.4809 43.5707 19.8194 43.6674 20.0773 44.0542L21.7214 47.5359ZM37.6788 44.0542C37.8723 43.6674 38.1785 43.5707 38.5976 43.7641C39.0167 43.9575 39.1295 44.2799 38.9361 44.7312L37.292 48.0194V61.5591C37.292 62.0749 37.0502 62.3328 36.5667 62.3328C36.0831 62.3328 35.8413 62.0749 35.8413 61.5591V47.826C35.8413 47.697 35.8736 47.6003 35.938 47.5359L37.6788 44.0542ZM53.1527 36.2206C53.4751 35.8337 53.8297 35.8015 54.2166 36.1239C54.6034 36.4462 54.6356 36.8008 54.3133 37.1877C53.6685 37.8969 52.8948 38.2515 51.9922 38.2515C51.0895 38.2515 50.3481 37.8969 49.7678 37.1877C49.4454 36.8008 49.4777 36.4462 49.8645 36.1239C50.2514 35.8015 50.5737 35.8337 50.8316 36.2206C51.154 36.6074 51.5409 36.8008 51.9922 36.8008C52.4435 36.8008 52.8304 36.6074 53.1527 36.2206ZM47.8336 32.3521C47.8336 31.9008 48.0754 31.6751 48.5589 31.6751C49.0425 31.6751 49.2843 31.9008 49.2843 32.3521V33.2225C49.2843 33.7383 49.0425 33.9962 48.5589 33.9962C48.0754 33.9962 47.8336 33.7383 47.8336 33.2225V32.3521ZM54.7001 32.3521C54.7001 31.9008 54.9419 31.6751 55.4255 31.6751C55.909 31.6751 56.1508 31.9008 56.1508 32.3521V33.2225C56.1508 33.7383 55.909 33.9962 55.4255 33.9962C54.9419 33.9962 54.7001 33.7383 54.7001 33.2225V32.3521ZM62.7272 46.5687C64.0812 47.0845 64.7581 48.0839 64.7581 49.5668V53.8221C64.7581 54.3379 64.5002 54.5958 63.9844 54.5958H63.8877V61.5591C63.8877 62.0749 63.646 62.3328 63.1624 62.3328C62.6788 62.3328 62.4371 62.0749 62.4371 61.5591V54.5958H60.5028V61.5591C60.5028 62.0749 60.261 62.3328 59.7775 62.3328C59.2939 62.3328 59.0521 62.0749 59.0521 61.5591V52.178C59.0521 51.6622 59.2939 51.4043 59.7775 51.4043C60.261 51.4043 60.5028 51.6622 60.5028 52.178V53.1451H63.2108H63.3075V49.5668C63.3075 48.7286 62.9206 48.1484 62.1469 47.826L57.6015 46.0852C56.2475 48.3418 54.5067 50.0181 52.379 51.1142C52.2501 51.1142 52.1211 51.1142 51.9922 51.1142C51.8632 51.1142 51.7665 51.1142 51.702 51.1142C49.5744 50.0181 47.8336 48.3418 46.4796 46.0852L41.9342 47.826C41.1605 48.1484 40.7736 48.7286 40.7736 49.5668V53.1451H40.8703H43.5783V52.178C43.5783 51.6622 43.82 51.4043 44.3036 51.4043C44.7872 51.4043 45.0289 51.6622 45.0289 52.178V61.5591C45.0289 62.0749 44.7872 62.3328 44.3036 62.3328C43.82 62.3328 43.5783 62.0749 43.5783 61.5591V54.5958H41.5473V61.5591C41.5473 62.0749 41.3055 62.3328 40.822 62.3328C40.3384 62.3328 40.0966 62.0749 40.0966 61.5591V54.5958H39.9999C39.8065 54.5958 39.6292 54.5152 39.468 54.354C39.3068 54.1929 39.2262 54.0155 39.2262 53.8221V49.5668C39.2262 48.0839 39.9354 47.0845 41.3539 46.5687L47.2533 44.1509C47.6402 44.022 47.8336 43.7319 47.8336 43.2805V41.443C47.4467 41.2496 47.0599 40.9917 46.673 40.6693C45.1901 39.4443 44.223 37.8969 43.7717 36.0272C43.7072 35.5758 43.6427 35.1567 43.5783 34.7699C42.4177 34.3831 41.8374 33.5771 41.8374 32.3521V28.9672C41.8374 27.0974 42.3049 25.3727 43.2398 23.7931C44.1746 22.2135 45.448 20.9724 47.0599 20.0697C46.9954 19.8763 46.9632 19.6829 46.9632 19.4894C46.9632 18.3934 47.4628 17.4263 48.4622 16.5881C49.4616 15.7499 50.6543 15.3308 52.0405 15.3308C53.4267 15.3308 54.6034 15.7499 55.5705 16.5881C56.5376 17.4263 57.0212 18.3934 57.0212 19.4894C57.0212 19.6829 57.0212 19.8763 57.0212 20.0697C58.5686 20.9724 59.8097 22.2135 60.7446 23.7931C61.6795 25.3727 62.1469 27.0974 62.1469 28.9672V30.708C62.1469 31.1593 61.9051 31.385 61.4216 31.385C60.938 31.385 60.6962 31.1593 60.6962 30.708V28.9672C60.6962 26.5816 59.8581 24.5346 58.1817 22.826C56.5054 21.1174 54.4583 20.2631 52.0405 20.2631C49.6227 20.2631 47.5596 21.1174 45.851 22.826C44.1424 24.5346 43.2881 26.5816 43.2881 28.9672V30.1277C43.6105 29.9988 43.9329 29.9343 44.2552 29.9343C45.1579 29.9343 46.0283 29.4508 46.8665 28.4836C47.3178 27.9678 47.6724 27.452 47.9303 26.9362C48.0592 26.7428 48.2365 26.6139 48.4622 26.5494C48.6879 26.4849 48.8652 26.5172 48.9941 26.6461C50.0902 27.4843 51.8955 28.1613 54.41 28.6771C55.4416 28.8705 56.2153 29.0478 56.7311 29.209C57.2469 29.3702 57.8432 29.6442 58.5202 30.031C59.1972 30.4179 59.6969 30.9498 60.0193 31.6268C60.3416 32.3037 60.5028 33.1258 60.5028 34.0929C60.5028 34.7377 60.4061 35.3824 60.2127 36.0272C59.8258 37.8969 58.8587 39.4443 57.3113 40.6693C56.989 40.9917 56.6021 41.2496 56.1508 41.443V43.2805C56.1508 43.7319 56.3764 44.022 56.8278 44.1509L62.7272 46.5687ZM54.5067 17.5552C54.5067 17.5552 54.3294 17.4263 53.9748 17.1684C53.6202 16.9105 52.9593 16.7815 51.9922 16.7815C51.0251 16.7815 50.203 17.0394 49.526 17.5552C48.849 18.071 48.4783 18.6835 48.4138 19.3927C49.5744 19.0059 50.7672 18.8125 51.9922 18.8125C53.2172 18.8125 54.41 19.0059 55.5705 19.3927C55.5705 18.6835 55.2159 18.071 54.5067 17.5552ZM47.6402 39.6055C48.9296 40.6371 50.3964 41.1529 52.0405 41.1529C53.6846 41.1529 55.1514 40.6371 56.4409 39.6055C57.6659 38.5739 58.4719 37.2522 58.8587 35.6403C58.9877 35.1245 59.0521 34.6087 59.0521 34.0929C59.0521 32.739 58.6975 31.8202 57.9883 31.3366C57.2791 30.8531 55.9896 30.4501 54.1198 30.1277C51.7343 29.6119 49.9612 28.9994 48.8007 28.2902C47.4467 30.3534 45.9316 31.385 44.2552 31.385C43.9973 31.385 43.7717 31.4817 43.5783 31.6751C43.3848 31.8685 43.2881 32.1103 43.2881 32.4005C43.2881 32.6906 43.3848 32.9324 43.5783 33.1258C43.7717 33.3192 43.9973 33.4159 44.2552 33.4159C44.771 33.4159 45.0289 33.6416 45.0289 34.0929C45.0289 34.6087 45.0934 35.1245 45.2224 35.6403C45.5447 37.2522 46.3507 38.5739 47.6402 39.6055ZM51.9922 49.5668C53.6685 48.6642 55.087 47.3102 56.2475 45.5049C55.2159 45.0536 54.7001 44.3121 54.7001 43.2805V42.12C53.8619 42.4424 52.9754 42.6036 52.0405 42.6036C51.1057 42.6036 50.1869 42.4424 49.2843 42.12V43.2805C49.2843 44.3121 48.8007 45.0536 47.8336 45.5049C48.9941 47.3102 50.3803 48.6642 51.9922 49.5668ZM40.0966 40.5726C40.8059 40.766 41.37 41.1529 41.7891 41.7332C42.2082 42.3134 42.4177 42.9904 42.4177 43.7641C42.4177 44.2154 42.1759 44.4411 41.6924 44.4411C41.2088 44.4411 40.967 44.2154 40.967 43.7641C40.967 42.8615 40.548 42.2812 39.7098 42.0233L36.4216 41.0562C36.4216 41.1851 36.3571 41.3141 36.2282 41.443L33.3268 45.1181C33.0044 45.5049 32.6176 45.6983 32.1663 45.6983C31.7794 45.6983 31.457 45.5694 31.1991 45.3115L29.555 44.1509V61.5591C29.555 62.0749 29.3133 62.3328 28.8297 62.3328C28.3461 62.3328 28.1044 62.0749 28.1044 61.5591V44.1509L26.557 45.3115C26.2346 45.5694 25.9122 45.6983 25.5899 45.6983C25.0741 45.6983 24.655 45.5049 24.3326 45.1181L21.4313 41.443C21.3023 41.3141 21.2378 41.1851 21.2378 41.0562L18.0463 42.0233C17.1437 42.2812 16.6924 42.8615 16.6924 43.7641V61.5591C16.6924 62.0749 16.4506 62.3328 15.967 62.3328C15.4835 62.3328 15.2417 62.0749 15.2417 61.5591V43.7641C15.2417 42.9904 15.4512 42.3134 15.8703 41.7332C16.2894 41.1529 16.8536 40.766 17.5628 40.5726L22.3017 39.2186L23.0754 37.9614C23.2043 37.8324 23.3655 37.7357 23.5589 37.6713C23.6879 37.6713 23.7846 37.6713 23.849 37.6713V36.6074C21.7214 35.06 20.5608 32.9969 20.3674 30.4179C19.2714 30.0955 18.7233 29.3218 18.7233 28.0968C18.7233 27.3876 18.9812 26.7751 19.497 26.2593V22.1007C19.497 20.2309 20.1579 18.6351 21.4796 17.3134C22.8013 15.9917 24.3971 15.3308 26.2668 15.3308H33.1334C33.9071 15.3308 34.5841 15.5565 35.1643 16.0078C35.7446 16.4591 36.1314 17.0716 36.3249 17.8453C37.5499 18.619 38.1624 19.7473 38.1624 21.2302V26.2593C38.7427 26.7751 39.0328 27.3876 39.0328 28.0968C39.0328 29.3218 38.4525 30.0955 37.292 30.4179C37.0986 32.9969 35.938 35.06 33.8104 36.6074V37.6713C33.9393 37.6713 34.036 37.6713 34.1005 37.6713C34.2939 37.7357 34.4551 37.8324 34.5841 37.9614L35.3578 39.2186L40.0966 40.5726ZM21.8181 29.8376C21.8181 31.7718 22.5112 33.4159 23.8974 34.7699C25.2836 36.1239 26.9438 36.8008 28.8781 36.8008C30.8123 36.8008 32.4564 36.1239 33.8104 34.7699C35.1643 33.4159 35.8413 31.7718 35.8413 29.8376C35.8413 29.3218 36.067 29.0639 36.5183 29.0639C36.8407 29.0639 37.0986 28.9672 37.292 28.7738C37.4854 28.5803 37.5821 28.3547 37.5821 28.0968C37.5821 27.7099 37.4209 27.4198 37.0986 27.2264C36.8407 27.0974 36.7117 26.904 36.7117 26.6461V21.2302C36.7117 20.1987 36.2604 19.425 35.3578 18.9092C35.0999 18.7802 34.9709 18.5868 34.9709 18.3289C34.7775 17.2973 34.165 16.7815 33.1334 16.7815H26.2668C24.7839 16.7815 23.5267 17.2973 22.4951 18.3289C21.4635 19.3605 20.9477 20.6177 20.9477 22.1007V25.679C21.0122 25.679 21.0766 25.679 21.1411 25.679H22.1082C22.1727 25.679 22.2372 25.6468 22.3017 25.5823L22.7852 22.8743C22.8497 22.423 23.0915 22.0845 23.5106 21.8589C23.9296 21.6332 24.3648 21.5849 24.8162 21.7138C25.9767 22.0362 27.3307 22.1974 28.8781 22.1974C30.8123 22.1974 32.4242 21.9395 33.7137 21.4237C34.165 21.2302 34.4873 21.3592 34.6808 21.8105C34.8742 22.2618 34.7452 22.5842 34.2939 22.7776C32.811 23.3579 31.0057 23.648 28.8781 23.648C27.2017 23.648 25.7188 23.4546 24.4293 23.0678C24.3648 23.0678 24.3004 23.1 24.2359 23.1645L23.6556 25.8724C23.5267 26.7106 23.0109 27.1297 22.1082 27.1297H21.1411C20.9477 27.1297 20.7865 27.1619 20.6576 27.2264C20.2707 27.4198 20.0773 27.7099 20.0773 28.0968C20.0773 28.3547 20.1901 28.5803 20.4158 28.7738C20.6414 28.9672 20.8832 29.0639 21.1411 29.0639C21.5924 29.0639 21.8181 29.3218 21.8181 29.8376ZM25.6866 44.1509L27.7175 42.7003L23.849 39.5088L22.8819 40.9595L25.4931 44.1509C25.4931 44.2154 25.5576 44.2154 25.6866 44.1509ZM28.8781 41.7332L32.4564 38.7351V37.4778C31.2959 37.9936 30.087 38.2515 28.8297 38.2515C27.5725 38.2515 26.3958 37.9936 25.2997 37.4778V38.7351L28.8781 41.7332ZM32.263 44.1509L34.7775 40.9595L33.8104 39.5088L30.0386 42.7003L32.0696 44.1509C32.134 44.2154 32.1985 44.2154 32.263 44.1509ZM25.5899 50.3889C25.5899 50.3889 25.5899 50.268 25.5899 50.0262C25.5899 49.7844 25.8316 49.6635 26.3152 49.6635C26.7988 49.6635 27.0405 49.9053 27.0405 50.3889C27.0405 50.8724 26.7988 51.1142 26.3152 51.1142C25.8316 51.1142 25.5899 50.8724 25.5899 50.3889ZM25.5899 57.2554C25.5899 57.2554 25.5899 57.1345 25.5899 56.8927C25.5899 56.6509 25.8316 56.5301 26.3152 56.5301C26.7988 56.5301 27.0405 56.7718 27.0405 57.2554C27.0405 57.739 26.7988 57.9807 26.3152 57.9807C25.8316 57.9807 25.5899 57.739 25.5899 57.2554ZM25.5899 53.8705C25.5899 53.8705 25.5899 53.7496 25.5899 53.5078C25.5899 53.266 25.8316 53.1451 26.3152 53.1451C26.7988 53.1451 27.0405 53.3869 27.0405 53.8705C27.0405 54.354 26.7988 54.5958 26.3152 54.5958C25.8316 54.5958 25.5899 54.354 25.5899 53.8705Z" fill="#C0B596"/>
</svg>
