<svg width="80" height="81" viewBox="0 0 80 81" fill="none" xmlns="http://www.w3.org/2000/svg">
<mask id="path-1-inside-1_15_2317" fill="white">
<path d="M0 40.3801C0 18.2887 17.9086 0.380127 40 0.380127C62.0914 0.380127 80 18.2887 80 40.3801C80 62.4715 62.0914 80.3801 40 80.3801C17.9086 80.3801 0 62.4715 0 40.3801Z"/>
</mask>
<path d="M40 79.3801C18.4609 79.3801 1 61.9192 1 40.3801H-1C-1 63.0238 17.3563 81.3801 40 81.3801V79.3801ZM79 40.3801C79 61.9192 61.5391 79.3801 40 79.3801V81.3801C62.6437 81.3801 81 63.0238 81 40.3801H79ZM40 1.38013C61.5391 1.38013 79 18.841 79 40.3801H81C81 17.7365 62.6437 -0.619873 40 -0.619873V1.38013ZM40 -0.619873C17.3563 -0.619873 -1 17.7365 -1 40.3801H1C1 18.841 18.4609 1.38013 40 1.38013V-0.619873Z" fill="#C0B596" fill-opacity="0.5" mask="url(#path-1-inside-1_15_2317)"/>
<g clip-path="url(#clip0_15_2317)">
<path d="M63.791 61.4459C64.4358 61.4459 64.7581 61.7683 64.7581 62.413C64.7581 63.0578 64.4358 63.3801 63.791 63.3801H58.5686H45.0289H34.9709H21.4313H16.2088C15.5641 63.3801 15.2417 63.0578 15.2417 62.413C15.2417 61.7683 15.5641 61.4459 16.2088 61.4459H20.4641V39.589H16.2088C15.7575 39.589 15.4513 39.3956 15.2901 39.0088C15.1289 38.6219 15.2095 38.2673 15.5318 37.9449L24.8162 28.6606C25.2675 28.2093 25.7188 28.2093 26.1701 28.6606C26.6215 29.1119 26.6215 29.5632 26.1701 30.0146L18.5299 37.6548H22.3984L39.3229 20.7302C39.7743 20.2789 40.2256 20.2789 40.6769 20.7302L57.6015 37.6548H61.47L39.9999 16.1848L31.586 24.5987C31.1347 25.05 30.6834 25.05 30.232 24.5987C29.7807 24.1474 29.7807 23.6961 30.232 23.2447L39.3229 14.1538C39.7743 13.7025 40.2256 13.7025 40.6769 14.1538L64.468 37.9449C64.7904 38.2673 64.871 38.6219 64.7098 39.0088C64.5486 39.3956 64.2424 39.589 63.791 39.589H59.5357V46.8424C59.5357 47.4872 59.2133 47.8095 58.5686 47.8095C57.9239 47.8095 57.6015 47.4872 57.6015 46.8424V39.589H57.2146C56.9567 39.589 56.7311 39.4923 56.5377 39.2989L39.9999 22.7612L23.4622 39.2989C23.2688 39.4923 23.0431 39.589 22.7852 39.589H22.3984V61.4459H34.0038V43.0706C34.0038 42.4259 34.3262 42.1035 34.9709 42.1035H45.0289C45.6737 42.1035 45.9961 42.4259 45.9961 43.0706V61.4459H57.6015V53.8057C57.6015 53.1609 57.9239 52.8385 58.5686 52.8385C59.2133 52.8385 59.5357 53.1609 59.5357 53.8057V61.4459H63.791ZM44.0618 61.4459V44.0378H35.938V61.4459H44.0618ZM54.5067 42.1035C55.1514 42.1035 55.4738 42.4259 55.4738 43.0706V52.7418C55.4738 53.3866 55.1514 53.7089 54.5067 53.7089H49.0908C48.4461 53.7089 48.1237 53.3866 48.1237 52.7418V43.0706C48.1237 42.4259 48.4461 42.1035 49.0908 42.1035H54.5067ZM53.5396 51.7747V44.0378H50.058V51.7747H53.5396ZM30.909 42.1035C31.5538 42.1035 31.8761 42.4259 31.8761 43.0706V52.7418C31.8761 53.3866 31.5538 53.7089 30.909 53.7089H25.4932C24.8484 53.7089 24.526 53.3866 24.526 52.7418V43.0706C24.526 42.4259 24.8484 42.1035 25.4932 42.1035H30.909ZM29.9419 51.7747V44.0378H26.4603V51.7747H29.9419ZM36.8568 31.03C36.8568 31.03 37.0744 30.8124 37.5096 30.3772C37.9448 29.942 38.7749 29.7244 39.9999 29.7244C41.2249 29.7244 42.2727 30.1596 43.1431 31.03C44.0135 31.9004 44.4487 32.9481 44.4487 34.1732C44.4487 35.3982 44.0135 36.4459 43.1431 37.3163C42.2727 38.1867 41.2249 38.6219 39.9999 38.6219C38.7749 38.6219 37.7272 38.1867 36.8568 37.3163C35.9864 36.4459 35.5512 35.3982 35.5512 34.1732C35.5512 32.9481 35.9864 31.9004 36.8568 31.03ZM39.9999 36.6877C40.3223 36.6877 40.6447 36.6232 40.967 36.4942C41.2894 36.3653 41.5634 36.188 41.7891 35.9623C42.0148 35.7367 42.1921 35.4788 42.321 35.1886C42.45 34.8985 42.5144 34.56 42.5144 34.1732C42.5144 33.7218 42.4016 33.3028 42.1759 32.9159C41.9503 32.5291 41.644 32.2228 41.2572 31.9971C40.8703 31.7715 40.4513 31.6587 39.9999 31.6587C39.2907 31.6587 38.6943 31.9166 38.2108 32.4324C37.7272 32.9481 37.4854 33.5445 37.4854 34.2215C37.4854 34.8985 37.7272 35.4788 38.2108 35.9623C38.6943 36.4459 39.2907 36.6877 39.9999 36.6877ZM38.1624 51.7747C38.1624 51.7747 38.2269 51.7747 38.3558 51.7747C38.4848 51.7747 38.646 51.8714 38.8394 52.0648C39.0328 52.2583 39.1295 52.4839 39.1295 52.7418C39.1295 52.9997 39.0328 53.2254 38.8394 53.4188C38.646 53.6122 38.4203 53.7089 38.1624 53.7089C37.9045 53.7089 37.6788 53.6122 37.4854 53.4188C37.292 53.2254 37.1953 52.9997 37.1953 52.7418C37.1953 52.4839 37.292 52.2583 37.4854 52.0648C37.6788 51.8714 37.9045 51.7747 38.1624 51.7747ZM28.1044 25.7592C28.1044 25.7592 28.1689 25.7592 28.2978 25.7592C28.4268 25.7592 28.5879 25.8559 28.7814 26.0494C28.9748 26.2428 29.0715 26.4685 29.0715 26.7264C29.0715 26.9843 28.9748 27.2099 28.7814 27.4033C28.5879 27.5968 28.3623 27.6935 28.1044 27.6935C27.8465 27.6935 27.6208 27.5968 27.4274 27.4033C27.234 27.2099 27.1373 26.9843 27.1373 26.7264C27.1373 26.4685 27.234 26.2428 27.4274 26.0494C27.6208 25.8559 27.8465 25.7592 28.1044 25.7592ZM58.5686 49.0668C58.5686 49.0668 58.6331 49.0668 58.762 49.0668C58.891 49.0668 59.0522 49.1635 59.2456 49.3569C59.439 49.5503 59.5357 49.776 59.5357 50.0339C59.5357 50.2918 59.439 50.5175 59.2456 50.7109C59.0522 50.9043 58.8265 51.001 58.5686 51.001C58.3107 51.001 58.085 50.9043 57.8916 50.7109C57.6982 50.5175 57.6015 50.2918 57.6015 50.0339C57.6015 49.776 57.6982 49.5503 57.8916 49.3569C58.085 49.1635 58.3107 49.0668 58.5686 49.0668Z" fill="#C0B596"/>
</g>
<defs>
<clipPath id="clip0_15_2317">
<rect width="50" height="50" fill="white" transform="matrix(1 0 0 -1 15 63.3801)"/>
</clipPath>
</defs>
</svg>
