<svg width="80" height="81" viewBox="0 0 80 81" fill="none" xmlns="http://www.w3.org/2000/svg">
<mask id="path-1-inside-1_15_2257" fill="white">
<path d="M0 40.5901C0 18.4987 17.9086 0.590088 40 0.590088C62.0914 0.590088 80 18.4987 80 40.5901C80 62.6815 62.0914 80.5901 40 80.5901C17.9086 80.5901 0 62.6815 0 40.5901Z"/>
</mask>
<path d="M40 79.5901C18.4609 79.5901 1 62.1292 1 40.5901H-1C-1 63.2338 17.3563 81.5901 40 81.5901V79.5901ZM79 40.5901C79 62.1292 61.5391 79.5901 40 79.5901V81.5901C62.6437 81.5901 81 63.2338 81 40.5901H79ZM40 1.59009C61.5391 1.59009 79 19.051 79 40.5901H81C81 17.9464 62.6437 -0.409912 40 -0.409912V1.59009ZM40 -0.409912C17.3563 -0.409912 -1 17.9464 -1 40.5901H1C1 19.051 18.4609 1.59009 40 1.59009V-0.409912Z" fill="#C0B596" fill-opacity="0.5" mask="url(#path-1-inside-1_15_2257)"/>
<g clip-path="url(#clip0_15_2257)">
<path d="M50.3479 45.0214C50.3479 44.5056 50.6219 44.2477 51.17 44.2477C51.718 44.2477 51.992 44.5056 51.992 45.0214V62.7197C51.992 63.3 51.718 63.5901 51.17 63.5901C50.6219 63.5901 50.3479 63.3 50.3479 62.7197V45.0214ZM46.6729 25.8725C47.1242 26.2593 47.1564 26.6462 46.7696 27.033L44.8354 28.9673H45.8025C46.3183 28.9673 46.5762 29.2413 46.5762 29.7893C46.5762 30.3373 46.3183 30.6114 45.8025 30.6114H39.5162C39.0004 30.6114 38.7425 30.3373 38.7425 29.7893C38.7425 29.2413 39.0004 28.9673 39.5162 28.9673H42.5143L45.609 25.8725C45.9959 25.5501 46.3505 25.5501 46.6729 25.8725ZM55.8605 40.8628C56.5697 42.5392 56.9243 44.3122 56.9243 46.182V62.7197C56.9243 63.3 56.6503 63.5901 56.1023 63.5901C55.5542 63.5901 55.2802 63.3 55.2802 62.7197V46.182C55.2802 44.5701 54.9579 42.9905 54.3131 41.4431C53.4105 39.1865 51.9598 37.3812 49.9611 36.0272C49.9611 36.2206 49.9288 36.4141 49.8644 36.6075C48.5104 40.5404 46.5439 44.1833 43.9649 47.5359L42.8044 49.0833C42.8689 49.2767 42.9011 49.4379 42.9011 49.5669C42.9011 50.4695 42.5787 51.2432 41.934 51.888C41.2893 52.5327 40.5156 52.8551 39.6129 52.8551H32.1661V62.7197C32.1661 63.3 31.8921 63.5901 31.3441 63.5901C30.796 63.5901 30.522 63.3 30.522 62.7197V52.8551H26.847C25.8154 52.8551 24.9288 52.4843 24.1874 51.7429C23.4459 51.0014 23.0752 50.1149 23.0752 49.0833V48.503C23.0752 47.8583 23.2364 47.2458 23.5588 46.6655C26.2022 41.8299 29.7805 37.8003 34.2938 34.5765L35.4543 33.8029C34.5517 33.2226 33.778 32.5778 33.1332 31.8686C31.199 29.612 30.3286 27.0008 30.522 24.035C30.7154 21.0691 31.9404 18.6191 34.1971 16.6849C36.4537 14.7506 39.0488 13.8963 41.9824 14.122C44.9159 14.3477 47.366 15.5727 49.3324 17.7971C51.2989 20.0214 52.1693 22.6165 51.9437 25.5824C51.718 28.5482 50.4769 30.9982 48.2203 32.9324L50.8315 34.5765C53.1526 36.1239 54.8289 38.2194 55.8605 40.8628ZM26.847 51.211H32.0694L31.6825 47.9228H28.8779C28.2976 47.9228 28.0075 47.6488 28.0075 47.1007C28.0075 46.5527 28.2976 46.2787 28.8779 46.2787H31.4891L30.7154 39.799C28.4588 42.0556 26.5568 44.6023 25.0094 47.4392C24.816 47.7616 24.7193 48.1162 24.7193 48.503V49.0833C24.7193 49.6636 24.9288 50.1633 25.3479 50.5824C25.767 51.0014 26.2667 51.211 26.847 51.211ZM44.9321 16.4914C41.9018 15.1375 39.0004 15.3954 36.228 17.2651L39.4195 18.9092L44.9321 16.4914ZM34.7773 18.4257C33.8747 19.3283 33.1977 20.4244 32.7464 21.7139L37.3885 19.6829L34.7773 18.4257ZM32.2628 23.6481C32.0694 24.8087 32.1339 25.937 32.4562 27.033L48.0268 18.8125C47.64 18.3612 47.1887 17.9421 46.6729 17.5553L32.2628 23.6481ZM33.4234 29.4508C34.7128 31.5785 36.5665 32.9486 38.9843 33.5611C41.4021 34.1736 43.6909 33.8512 45.8508 32.594C48.0107 31.3367 49.3969 29.4992 50.0094 27.0814C50.6219 24.6636 50.3157 22.3586 49.0907 20.1665L33.0365 28.5804C33.1655 28.9028 33.2944 29.1929 33.4234 29.4508ZM33.7135 51.211H37.6787L34.1003 36.8009C33.3911 37.3812 32.7464 37.897 32.1661 38.3483L33.7135 51.211ZM40.7735 50.7274C41.5471 49.9537 41.5471 49.18 40.7735 48.4063C40.4511 48.084 40.0642 47.9228 39.6129 47.9228H38.5491L39.4195 51.211H39.6129C40.0642 51.211 40.4511 51.0498 40.7735 50.7274ZM48.317 36.0272C48.4459 35.6404 48.5426 35.318 48.6071 35.0601L46.8663 33.8996C43.707 35.8983 40.4188 36.1562 37.0017 34.6733L35.551 35.7371L38.1622 46.2787H39.6129C40.5156 46.2787 41.2893 46.601 41.934 47.2458C41.934 47.2458 41.9501 47.2619 41.9824 47.2941C42.0146 47.3264 42.0307 47.3747 42.0307 47.4392L42.7077 46.5688C45.1577 43.3451 47.0275 39.8312 48.317 36.0272Z" fill="#C0B596"/>
</g>
<defs>
<clipPath id="clip0_15_2257">
<rect width="50" height="50" fill="white" transform="matrix(1 0 0 -1 15 63.5901)"/>
</clipPath>
</defs>
</svg>
